<svg xmlns="http://www.w3.org/2000/svg" xmlns:xlink="http://www.w3.org/1999/xlink" width="300" zoomAndPan="magnify" viewBox="0 0 224.87999 225" height="300" preserveAspectRatio="xMidYMid meet" version="1.0"><defs><g/><clipPath id="1075ed89fb"><path d="M 74.664062 64.898438 L 118 64.898438 L 118 108.375 L 74.664062 108.375 Z M 74.664062 64.898438 " clip-rule="nonzero"/></clipPath></defs><g fill="#ffffff" fill-opacity="1"><g transform="translate(35.299818, 105.00096)"><g><path d="M 37.859375 -3.125 C 37.859375 -1.800781 37.523438 -0.722656 36.859375 0.109375 C 36.191406 0.941406 35.171875 1.359375 33.796875 1.359375 C 32.703125 1.359375 31.691406 1.023438 30.765625 0.359375 C 29.847656 -0.304688 28.992188 -1.125 28.203125 -2.09375 C 27.421875 -3.070312 26.734375 -4.101562 26.140625 -5.1875 C 25.554688 -6.28125 25.070312 -7.234375 24.6875 -8.046875 C 23.695312 -10.035156 22.710938 -12.023438 21.734375 -14.015625 C 20.765625 -16.003906 19.804688 -18.019531 18.859375 -20.0625 L 14.59375 -17.4375 C 14.632812 -16.0625 14.5625 -14.679688 14.375 -13.296875 C 14.1875 -11.921875 14.046875 -10.546875 13.953125 -9.171875 C 13.847656 -8.222656 13.6875 -7.191406 13.46875 -6.078125 C 13.257812 -4.960938 12.914062 -3.921875 12.4375 -2.953125 C 11.96875 -1.984375 11.332031 -1.164062 10.53125 -0.5 C 9.726562 0.164062 8.734375 0.5 7.546875 0.5 C 6.453125 0.5 5.546875 0.273438 4.828125 -0.171875 C 4.117188 -0.628906 3.539062 -1.210938 3.09375 -1.921875 C 2.644531 -2.628906 2.320312 -3.429688 2.125 -4.328125 C 1.9375 -5.234375 1.84375 -6.160156 1.84375 -7.109375 L 1.84375 -7.6875 C 1.84375 -10.476562 2 -13.285156 2.3125 -16.109375 C 2.625 -18.929688 2.828125 -21.769531 2.921875 -24.625 C 3.015625 -28.363281 3.128906 -32.109375 3.265625 -35.859375 C 3.410156 -39.609375 3.601562 -43.359375 3.84375 -47.109375 C 3.882812 -47.960938 4.023438 -48.789062 4.265625 -49.59375 C 4.503906 -50.394531 4.859375 -51.113281 5.328125 -51.75 C 5.804688 -52.394531 6.390625 -52.90625 7.078125 -53.28125 C 7.765625 -53.664062 8.582031 -53.859375 9.53125 -53.859375 C 11 -53.859375 12.101562 -53.335938 12.84375 -52.296875 C 13.582031 -51.253906 14.09375 -49.992188 14.375 -48.515625 C 14.65625 -47.046875 14.785156 -45.53125 14.765625 -43.96875 C 14.742188 -42.40625 14.734375 -41.101562 14.734375 -40.0625 C 14.734375 -37.070312 14.660156 -34.082031 14.515625 -31.09375 C 15.890625 -32.226562 17.226562 -33.53125 18.53125 -35 C 19.832031 -36.476562 20.984375 -37.972656 21.984375 -39.484375 C 22.597656 -40.390625 23.304688 -41.632812 24.109375 -43.21875 C 24.921875 -44.8125 25.800781 -46.351562 26.75 -47.84375 C 27.695312 -49.34375 28.738281 -50.648438 29.875 -51.765625 C 31.019531 -52.878906 32.234375 -53.4375 33.515625 -53.4375 C 34.890625 -53.4375 35.894531 -53.046875 36.53125 -52.265625 C 37.175781 -51.484375 37.5 -50.453125 37.5 -49.171875 C 37.5 -47.265625 37.203125 -45.316406 36.609375 -43.328125 C 36.015625 -41.335938 35.21875 -39.378906 34.21875 -37.453125 C 33.226562 -35.535156 32.101562 -33.710938 30.84375 -31.984375 C 29.582031 -30.253906 28.3125 -28.75 27.03125 -27.46875 C 28.363281 -25.238281 29.625 -22.992188 30.8125 -20.734375 C 32 -18.484375 33.179688 -16.222656 34.359375 -13.953125 C 34.785156 -13.191406 35.203125 -12.359375 35.609375 -11.453125 C 36.015625 -10.554688 36.382812 -9.628906 36.71875 -8.671875 C 37.050781 -7.722656 37.320312 -6.773438 37.53125 -5.828125 C 37.75 -4.878906 37.859375 -3.976562 37.859375 -3.125 Z M 37.859375 -3.125 "/></g></g></g><g fill="#ffffff" fill-opacity="1"><g transform="translate(119.465836, 105.00096)"><g><path d="M 26.828125 -26.609375 C 26.160156 -26.566406 25.585938 -26.625 25.109375 -26.78125 C 24.640625 -26.945312 24.164062 -27.128906 23.6875 -27.328125 C 23.257812 -27.515625 22.832031 -27.691406 22.40625 -27.859375 C 21.976562 -28.023438 21.503906 -28.082031 20.984375 -28.03125 C 20.035156 -27.988281 19.191406 -27.726562 18.453125 -27.25 C 17.722656 -26.78125 17.0625 -26.1875 16.46875 -25.46875 C 15.875 -24.757812 15.363281 -23.960938 14.9375 -23.078125 C 14.507812 -22.203125 14.179688 -21.335938 13.953125 -20.484375 C 13.804688 -19.921875 13.695312 -19.054688 13.625 -17.890625 C 13.550781 -16.734375 13.515625 -15.488281 13.515625 -14.15625 C 13.472656 -12.78125 13.453125 -11.472656 13.453125 -10.234375 C 13.453125 -9.003906 13.40625 -8.035156 13.3125 -7.328125 C 13.257812 -6.566406 13.140625 -5.675781 12.953125 -4.65625 C 12.765625 -3.632812 12.46875 -2.671875 12.0625 -1.765625 C 11.65625 -0.867188 11.117188 -0.113281 10.453125 0.5 C 9.796875 1.113281 8.941406 1.421875 7.890625 1.421875 C 7.085938 1.421875 6.390625 1.179688 5.796875 0.703125 C 5.203125 0.234375 4.703125 -0.390625 4.296875 -1.171875 C 3.898438 -1.953125 3.570312 -2.863281 3.3125 -3.90625 C 3.050781 -4.957031 2.847656 -6.023438 2.703125 -7.109375 C 2.554688 -8.253906 2.445312 -9.394531 2.375 -10.53125 C 2.3125 -11.664062 2.265625 -12.742188 2.234375 -13.765625 C 2.210938 -14.785156 2.210938 -15.722656 2.234375 -16.578125 C 2.265625 -17.429688 2.28125 -18.117188 2.28125 -18.640625 C 2.226562 -20.296875 2.140625 -21.96875 2.015625 -23.65625 C 1.898438 -25.34375 1.84375 -27.015625 1.84375 -28.671875 C 1.84375 -29.710938 1.890625 -30.875 1.984375 -32.15625 C 2.085938 -33.4375 2.351562 -34.632812 2.78125 -35.75 C 3.207031 -36.863281 3.832031 -37.800781 4.65625 -38.5625 C 5.488281 -39.320312 6.640625 -39.703125 8.109375 -39.703125 C 8.921875 -39.703125 9.609375 -39.441406 10.171875 -38.921875 C 10.742188 -38.398438 11.207031 -37.757812 11.5625 -37 C 11.914062 -36.238281 12.1875 -35.429688 12.375 -34.578125 C 12.570312 -33.722656 12.691406 -32.941406 12.734375 -32.234375 C 13.867188 -34.078125 15.148438 -35.582031 16.578125 -36.75 C 18.003906 -37.914062 19.851562 -38.546875 22.125 -38.640625 C 23.257812 -38.679688 24.382812 -38.570312 25.5 -38.3125 C 26.625 -38.050781 27.644531 -37.625 28.5625 -37.03125 C 29.488281 -36.4375 30.25 -35.664062 30.84375 -34.71875 C 31.4375 -33.769531 31.757812 -32.65625 31.8125 -31.375 C 31.90625 -29.851562 31.453125 -28.691406 30.453125 -27.890625 C 29.453125 -27.085938 28.242188 -26.660156 26.828125 -26.609375 Z M 26.828125 -26.609375 "/></g></g></g><g fill="#ffffff" fill-opacity="1"><g transform="translate(154.061985, 105.00096)"><g><path d="M 33.296875 -20.34375 C 33.296875 -17.738281 33.035156 -15.15625 32.515625 -12.59375 C 31.992188 -10.03125 31.113281 -7.738281 29.875 -5.71875 C 28.644531 -3.707031 27 -2.082031 24.9375 -0.84375 C 22.875 0.382812 20.300781 1 17.21875 1 C 14.1875 1 11.648438 0.394531 9.609375 -0.8125 C 7.566406 -2.019531 5.941406 -3.617188 4.734375 -5.609375 C 3.523438 -7.609375 2.671875 -9.863281 2.171875 -12.375 C 1.671875 -14.894531 1.421875 -17.457031 1.421875 -20.0625 C 1.421875 -22.90625 1.753906 -25.726562 2.421875 -28.53125 C 2.554688 -29.289062 2.828125 -30.34375 3.234375 -31.6875 C 3.640625 -33.039062 4.160156 -34.367188 4.796875 -35.671875 C 5.441406 -36.984375 6.175781 -38.113281 7 -39.0625 C 7.832031 -40.007812 8.75 -40.484375 9.75 -40.484375 C 10.695312 -40.484375 11.453125 -40.222656 12.015625 -39.703125 C 12.585938 -39.179688 13.039062 -38.53125 13.375 -37.75 C 13.707031 -36.96875 13.921875 -36.132812 14.015625 -35.25 C 14.109375 -34.375 14.15625 -33.582031 14.15625 -32.875 C 14.15625 -31.78125 14.070312 -30.710938 13.90625 -29.671875 C 13.738281 -28.628906 13.5625 -27.585938 13.375 -26.546875 C 13.1875 -25.117188 13.007812 -23.691406 12.84375 -22.265625 C 12.675781 -20.847656 12.59375 -19.425781 12.59375 -18 C 12.59375 -17.289062 12.628906 -16.492188 12.703125 -15.609375 C 12.773438 -14.734375 12.953125 -13.890625 13.234375 -13.078125 C 13.515625 -12.273438 13.914062 -11.601562 14.4375 -11.0625 C 14.957031 -10.519531 15.695312 -10.25 16.65625 -10.25 C 17.882812 -10.25 18.863281 -10.578125 19.59375 -11.234375 C 20.332031 -11.898438 20.878906 -12.726562 21.234375 -13.71875 C 21.585938 -14.71875 21.8125 -15.785156 21.90625 -16.921875 C 22.007812 -18.066406 22.0625 -19.113281 22.0625 -20.0625 C 22.0625 -22.15625 21.914062 -24.207031 21.625 -26.21875 C 21.34375 -28.238281 21.082031 -30.289062 20.84375 -32.375 C 20.800781 -32.613281 20.78125 -32.945312 20.78125 -33.375 C 20.78125 -34.082031 20.894531 -34.789062 21.125 -35.5 C 21.363281 -36.21875 21.695312 -36.859375 22.125 -37.421875 C 22.550781 -37.992188 23.070312 -38.457031 23.6875 -38.8125 C 24.3125 -39.164062 25 -39.34375 25.75 -39.34375 C 26.800781 -39.34375 27.726562 -38.972656 28.53125 -38.234375 C 29.332031 -37.503906 30.003906 -36.554688 30.546875 -35.390625 C 31.097656 -34.234375 31.550781 -32.929688 31.90625 -31.484375 C 32.257812 -30.035156 32.539062 -28.609375 32.75 -27.203125 C 32.96875 -25.804688 33.113281 -24.492188 33.1875 -23.265625 C 33.257812 -22.035156 33.296875 -21.0625 33.296875 -20.34375 Z M 33.296875 -20.34375 "/></g></g></g><g fill="#ffffff" fill-opacity="1"><g transform="translate(25.976669, 167.967354)"><g><path d="M 31.171875 -51.375 C 31.171875 -49.570312 30.550781 -47.929688 29.3125 -46.453125 C 28.082031 -44.984375 26.578125 -43.664062 24.796875 -42.5 C 23.015625 -41.34375 21.148438 -40.335938 19.203125 -39.484375 C 17.265625 -38.628906 15.582031 -37.921875 14.15625 -37.359375 C 14.15625 -36.359375 14.128906 -35.335938 14.078125 -34.296875 C 14.035156 -33.253906 13.96875 -32.210938 13.875 -31.171875 C 15.394531 -31.921875 17.101562 -32.628906 19 -33.296875 C 20.894531 -33.960938 22.695312 -34.296875 24.40625 -34.296875 C 25.78125 -34.296875 26.90625 -34.007812 27.78125 -33.4375 C 28.65625 -32.875 29.09375 -31.878906 29.09375 -30.453125 C 29.09375 -28.890625 28.535156 -27.488281 27.421875 -26.25 C 26.304688 -25.019531 24.96875 -23.929688 23.40625 -22.984375 C 21.84375 -22.035156 20.207031 -21.226562 18.5 -20.5625 C 16.789062 -19.894531 15.34375 -19.375 14.15625 -19 C 14.15625 -17.4375 14.128906 -15.882812 14.078125 -14.34375 C 14.035156 -12.800781 13.96875 -11.269531 13.875 -9.75 C 13.820312 -8.988281 13.738281 -8.035156 13.625 -6.890625 C 13.507812 -5.753906 13.269531 -4.65625 12.90625 -3.59375 C 12.550781 -2.53125 12.039062 -1.601562 11.375 -0.8125 C 10.71875 -0.03125 9.867188 0.359375 8.828125 0.359375 C 7.828125 0.359375 6.96875 -0.125 6.25 -1.09375 C 5.539062 -2.070312 4.9375 -3.316406 4.4375 -4.828125 C 3.945312 -6.347656 3.546875 -8.046875 3.234375 -9.921875 C 2.929688 -11.796875 2.695312 -13.632812 2.53125 -15.4375 C 2.363281 -17.238281 2.265625 -18.898438 2.234375 -20.421875 C 2.210938 -21.941406 2.203125 -23.101562 2.203125 -23.90625 C 2.203125 -24.519531 2.210938 -25.429688 2.234375 -26.640625 C 2.265625 -27.847656 2.289062 -29.1875 2.3125 -30.65625 C 2.332031 -32.132812 2.378906 -33.675781 2.453125 -35.28125 C 2.523438 -36.894531 2.609375 -38.425781 2.703125 -39.875 C 2.796875 -41.320312 2.925781 -42.601562 3.09375 -43.71875 C 3.257812 -44.832031 3.460938 -45.648438 3.703125 -46.171875 C 4.222656 -47.222656 5.46875 -48.253906 7.4375 -49.265625 C 9.40625 -50.285156 11.597656 -51.1875 14.015625 -51.96875 C 16.429688 -52.757812 18.789062 -53.398438 21.09375 -53.890625 C 23.394531 -54.390625 25.160156 -54.640625 26.390625 -54.640625 C 26.960938 -54.640625 27.519531 -54.601562 28.0625 -54.53125 C 28.613281 -54.46875 29.125 -54.316406 29.59375 -54.078125 C 30.070312 -53.835938 30.453125 -53.503906 30.734375 -53.078125 C 31.023438 -52.648438 31.171875 -52.082031 31.171875 -51.375 Z M 31.171875 -51.375 "/></g></g></g><g fill="#ffffff" fill-opacity="1"><g transform="translate(59.221076, 167.967354)"><g><path d="M 15.4375 -43.125 C 15.4375 -40.5625 15.328125 -37.984375 15.109375 -35.390625 C 14.898438 -32.804688 14.796875 -30.210938 14.796875 -27.609375 C 14.796875 -24.242188 14.898438 -20.875 15.109375 -17.5 C 15.328125 -14.132812 15.4375 -10.742188 15.4375 -7.328125 C 15.4375 -6.472656 15.390625 -5.507812 15.296875 -4.4375 C 15.203125 -3.375 14.976562 -2.390625 14.625 -1.484375 C 14.269531 -0.585938 13.734375 0.164062 13.015625 0.78125 C 12.304688 1.394531 11.359375 1.703125 10.171875 1.703125 C 9.035156 1.703125 8.050781 1.144531 7.21875 0.03125 C 6.394531 -1.082031 5.707031 -2.503906 5.15625 -4.234375 C 4.613281 -5.960938 4.160156 -7.894531 3.796875 -10.03125 C 3.441406 -12.164062 3.179688 -14.238281 3.015625 -16.25 C 2.859375 -18.269531 2.742188 -20.117188 2.671875 -21.796875 C 2.597656 -23.484375 2.5625 -24.734375 2.5625 -25.546875 C 2.5625 -26.441406 2.597656 -27.742188 2.671875 -29.453125 C 2.742188 -31.160156 2.894531 -33.007812 3.125 -35 C 3.363281 -37 3.6875 -39.03125 4.09375 -41.09375 C 4.5 -43.15625 5.03125 -45.023438 5.6875 -46.703125 C 6.351562 -48.390625 7.148438 -49.765625 8.078125 -50.828125 C 9.003906 -51.898438 10.109375 -52.4375 11.390625 -52.4375 C 12.429688 -52.4375 13.222656 -52.09375 13.765625 -51.40625 C 14.316406 -50.71875 14.707031 -49.882812 14.9375 -48.90625 C 15.175781 -47.9375 15.316406 -46.914062 15.359375 -45.84375 C 15.410156 -44.78125 15.4375 -43.875 15.4375 -43.125 Z M 15.4375 -43.125 "/></g></g></g><g fill="#ffffff" fill-opacity="1"><g transform="translate(81.793841, 167.967354)"><g><path d="M 13.875 -49.65625 C 13.875 -49 13.695312 -48.410156 13.34375 -47.890625 C 12.988281 -47.367188 12.523438 -46.90625 11.953125 -46.5 C 11.378906 -46.09375 10.757812 -45.78125 10.09375 -45.5625 C 9.4375 -45.351562 8.820312 -45.25 8.25 -45.25 C 7.300781 -45.25 6.472656 -45.484375 5.765625 -45.953125 C 5.054688 -46.429688 4.703125 -47.171875 4.703125 -48.171875 C 4.703125 -48.878906 4.878906 -49.503906 5.234375 -50.046875 C 5.585938 -50.597656 6.023438 -51.050781 6.546875 -51.40625 C 7.066406 -51.757812 7.660156 -52.03125 8.328125 -52.21875 C 8.992188 -52.414062 9.632812 -52.515625 10.25 -52.515625 C 11.144531 -52.515625 11.972656 -52.300781 12.734375 -51.875 C 13.492188 -51.445312 13.875 -50.707031 13.875 -49.65625 Z M 14.4375 -25.46875 C 14.4375 -24.800781 14.4375 -24.097656 14.4375 -23.359375 C 14.4375 -22.628906 14.414062 -21.9375 14.375 -21.28125 C 14.320312 -20.46875 14.296875 -19.382812 14.296875 -18.03125 C 14.296875 -16.6875 14.25 -15.226562 14.15625 -13.65625 C 14.0625 -12.09375 13.90625 -10.503906 13.6875 -8.890625 C 13.476562 -7.273438 13.132812 -5.800781 12.65625 -4.46875 C 12.1875 -3.144531 11.5625 -2.066406 10.78125 -1.234375 C 10 -0.410156 9.015625 0.0234375 7.828125 0.078125 C 6.921875 0.117188 6.160156 -0.238281 5.546875 -1 C 4.929688 -1.757812 4.421875 -2.742188 4.015625 -3.953125 C 3.617188 -5.160156 3.320312 -6.507812 3.125 -8 C 2.9375 -9.5 2.796875 -10.945312 2.703125 -12.34375 C 2.609375 -13.738281 2.5625 -15.03125 2.5625 -16.21875 C 2.5625 -17.40625 2.5625 -18.285156 2.5625 -18.859375 C 2.5625 -19.617188 2.5625 -20.695312 2.5625 -22.09375 C 2.5625 -23.488281 2.609375 -24.992188 2.703125 -26.609375 C 2.796875 -28.222656 2.972656 -29.859375 3.234375 -31.515625 C 3.492188 -33.179688 3.875 -34.703125 4.375 -36.078125 C 4.875 -37.453125 5.523438 -38.566406 6.328125 -39.421875 C 7.140625 -40.273438 8.160156 -40.703125 9.390625 -40.703125 C 10.671875 -40.703125 11.644531 -40.0625 12.3125 -38.78125 C 12.976562 -37.5 13.472656 -36.003906 13.796875 -34.296875 C 14.128906 -32.585938 14.316406 -30.890625 14.359375 -29.203125 C 14.410156 -27.523438 14.4375 -26.28125 14.4375 -25.46875 Z M 14.4375 -25.46875 "/></g></g></g><g fill="#ffffff" fill-opacity="1"><g transform="translate(103.014865, 167.967354)"><g><path d="M 28.53125 -27.328125 C 28.53125 -27.085938 28.503906 -26.835938 28.453125 -26.578125 C 28.410156 -26.316406 28.34375 -26.066406 28.25 -25.828125 C 27.820312 -24.734375 27.15625 -23.816406 26.25 -23.078125 C 25.351562 -22.347656 24.285156 -21.984375 23.046875 -21.984375 C 21.203125 -21.984375 19.945312 -22.910156 19.28125 -24.765625 C 19.1875 -24.992188 19.140625 -25.265625 19.140625 -25.578125 C 19.140625 -25.890625 19.113281 -26.210938 19.0625 -26.546875 L 19.0625 -28.609375 C 18.96875 -29.265625 18.800781 -29.78125 18.5625 -30.15625 C 18.332031 -30.539062 17.929688 -30.734375 17.359375 -30.734375 C 16.554688 -30.734375 15.785156 -30.222656 15.046875 -29.203125 C 14.316406 -28.179688 13.675781 -26.972656 13.125 -25.578125 C 12.582031 -24.179688 12.144531 -22.742188 11.8125 -21.265625 C 11.476562 -19.796875 11.3125 -18.613281 11.3125 -17.71875 C 11.3125 -17.007812 11.359375 -16.144531 11.453125 -15.125 C 11.546875 -14.101562 11.734375 -13.117188 12.015625 -12.171875 C 12.304688 -11.222656 12.703125 -10.40625 13.203125 -9.71875 C 13.703125 -9.03125 14.351562 -8.6875 15.15625 -8.6875 C 15.957031 -8.6875 16.703125 -8.929688 17.390625 -9.421875 C 18.078125 -9.921875 18.753906 -10.503906 19.421875 -11.171875 C 20.035156 -11.742188 20.710938 -12.335938 21.453125 -12.953125 C 22.191406 -13.566406 23.035156 -13.875 23.984375 -13.875 C 25.160156 -13.875 26.09375 -13.445312 26.78125 -12.59375 C 27.476562 -11.738281 27.828125 -10.765625 27.828125 -9.671875 C 27.828125 -8.054688 27.398438 -6.550781 26.546875 -5.15625 C 25.691406 -3.757812 24.625 -2.550781 23.34375 -1.53125 C 22.0625 -0.507812 20.632812 0.296875 19.0625 0.890625 C 17.5 1.484375 16.007812 1.78125 14.59375 1.78125 C 12.03125 1.78125 9.859375 1.140625 8.078125 -0.140625 C 6.296875 -1.421875 4.859375 -3.046875 3.765625 -5.015625 C 2.679688 -6.984375 1.898438 -9.128906 1.421875 -11.453125 C 0.953125 -13.773438 0.71875 -15.984375 0.71875 -18.078125 C 0.71875 -20.492188 1.046875 -23.113281 1.703125 -25.9375 C 2.367188 -28.757812 3.390625 -31.378906 4.765625 -33.796875 C 6.140625 -36.210938 7.90625 -38.226562 10.0625 -39.84375 C 12.226562 -41.457031 14.800781 -42.265625 17.78125 -42.265625 C 19.632812 -42.265625 21.238281 -41.859375 22.59375 -41.046875 C 23.945312 -40.242188 25.0625 -39.191406 25.9375 -37.890625 C 26.8125 -36.585938 27.472656 -35.128906 27.921875 -33.515625 C 28.378906 -31.898438 28.609375 -30.3125 28.609375 -28.75 C 28.609375 -28.507812 28.609375 -28.269531 28.609375 -28.03125 C 28.609375 -27.789062 28.582031 -27.554688 28.53125 -27.328125 Z M 28.53125 -27.328125 "/></g></g></g><g fill="#ffffff" fill-opacity="1"><g transform="translate(137.255292, 167.967354)"><g><path d="M 33.71875 -38.28125 C 33.71875 -36.945312 33.375 -35.59375 32.6875 -34.21875 C 32 -32.84375 31.171875 -31.476562 30.203125 -30.125 C 29.234375 -28.78125 28.210938 -27.5 27.140625 -26.28125 C 26.078125 -25.070312 25.140625 -23.972656 24.328125 -22.984375 C 24.992188 -21.941406 25.820312 -20.550781 26.8125 -18.8125 C 27.8125 -17.082031 28.757812 -15.242188 29.65625 -13.296875 C 30.5625 -11.359375 31.332031 -9.460938 31.96875 -7.609375 C 32.613281 -5.765625 32.9375 -4.222656 32.9375 -2.984375 C 32.9375 -1.992188 32.628906 -1.082031 32.015625 -0.25 C 31.398438 0.582031 30.546875 1 29.453125 1 C 28.648438 1 27.832031 0.65625 27 -0.03125 C 26.164062 -0.71875 25.332031 -1.617188 24.5 -2.734375 C 23.675781 -3.847656 22.882812 -5.09375 22.125 -6.46875 C 21.363281 -7.84375 20.660156 -9.191406 20.015625 -10.515625 C 19.378906 -11.847656 18.8125 -13.097656 18.3125 -14.265625 C 17.820312 -15.429688 17.429688 -16.367188 17.140625 -17.078125 C 16.523438 -16.460938 15.875 -15.953125 15.1875 -15.546875 C 14.5 -15.140625 13.820312 -14.675781 13.15625 -14.15625 C 13.15625 -13.164062 13.117188 -11.765625 13.046875 -9.953125 C 12.984375 -8.148438 12.769531 -6.375 12.40625 -4.625 C 12.050781 -2.875 11.472656 -1.34375 10.671875 -0.03125 C 9.867188 1.269531 8.679688 1.921875 7.109375 1.921875 C 5.878906 1.921875 4.929688 1.363281 4.265625 0.25 C 3.597656 -0.863281 3.109375 -2.164062 2.796875 -3.65625 C 2.492188 -5.15625 2.316406 -6.675781 2.265625 -8.21875 C 2.222656 -9.757812 2.203125 -10.929688 2.203125 -11.734375 C 2.203125 -15.242188 2.296875 -18.753906 2.484375 -22.265625 C 2.679688 -25.773438 2.800781 -29.285156 2.84375 -32.796875 C 2.84375 -33.609375 2.851562 -34.664062 2.875 -35.96875 C 2.90625 -37.269531 2.988281 -38.679688 3.125 -40.203125 C 3.269531 -41.722656 3.484375 -43.265625 3.765625 -44.828125 C 4.054688 -46.390625 4.460938 -47.796875 4.984375 -49.046875 C 5.503906 -50.304688 6.175781 -51.328125 7 -52.109375 C 7.832031 -52.898438 8.84375 -53.296875 10.03125 -53.296875 C 10.882812 -53.296875 11.609375 -52.972656 12.203125 -52.328125 C 12.796875 -51.691406 13.269531 -50.875 13.625 -49.875 C 13.976562 -48.882812 14.238281 -47.769531 14.40625 -46.53125 C 14.570312 -45.300781 14.691406 -44.078125 14.765625 -42.859375 C 14.835938 -41.648438 14.875 -40.523438 14.875 -39.484375 C 14.875 -38.441406 14.875 -37.613281 14.875 -37 C 14.875 -36.570312 14.859375 -35.941406 14.828125 -35.109375 C 14.804688 -34.285156 14.785156 -33.421875 14.765625 -32.515625 C 14.742188 -31.617188 14.734375 -30.789062 14.734375 -30.03125 C 14.734375 -29.269531 14.78125 -28.722656 14.875 -28.390625 C 15.207031 -28.390625 15.703125 -28.707031 16.359375 -29.34375 C 17.023438 -29.988281 17.796875 -30.804688 18.671875 -31.796875 C 19.554688 -32.796875 20.503906 -33.851562 21.515625 -34.96875 C 22.535156 -36.082031 23.578125 -37.132812 24.640625 -38.125 C 25.710938 -39.125 26.769531 -39.941406 27.8125 -40.578125 C 28.863281 -41.222656 29.835938 -41.546875 30.734375 -41.546875 C 31.679688 -41.546875 32.414062 -41.210938 32.9375 -40.546875 C 33.457031 -39.890625 33.71875 -39.132812 33.71875 -38.28125 Z M 33.71875 -38.28125 "/></g></g></g><g fill="#ffffff" fill-opacity="1"><g transform="translate(175.195221, 167.967354)"><g><path d="M 22.984375 -39.140625 C 22.984375 -37.753906 22.519531 -36.726562 21.59375 -36.0625 C 20.664062 -35.40625 19.632812 -34.78125 18.5 -34.1875 C 17.363281 -33.59375 16.332031 -32.890625 15.40625 -32.078125 C 14.476562 -31.273438 14.015625 -30.066406 14.015625 -28.453125 C 14.015625 -27.609375 14.210938 -26.875 14.609375 -26.25 C 15.015625 -25.632812 15.515625 -25.078125 16.109375 -24.578125 C 16.703125 -24.078125 17.351562 -23.566406 18.0625 -23.046875 C 18.78125 -22.523438 19.4375 -21.929688 20.03125 -21.265625 C 20.625 -20.609375 21.117188 -19.804688 21.515625 -18.859375 C 21.921875 -17.910156 22.125 -16.75 22.125 -15.375 C 22.125 -13.375 21.613281 -11.410156 20.59375 -9.484375 C 19.570312 -7.566406 18.265625 -5.863281 16.671875 -4.375 C 15.085938 -2.882812 13.300781 -1.6875 11.3125 -0.78125 C 9.320312 0.113281 7.351562 0.5625 5.40625 0.5625 C 4.601562 0.5625 3.796875 0.503906 2.984375 0.390625 C 2.179688 0.273438 1.457031 0.0507812 0.8125 -0.28125 C 0.175781 -0.613281 -0.351562 -1.078125 -0.78125 -1.671875 C -1.207031 -2.265625 -1.421875 -3.035156 -1.421875 -3.984375 C -1.421875 -5.316406 -1.160156 -6.347656 -0.640625 -7.078125 C -0.117188 -7.816406 0.539062 -8.398438 1.34375 -8.828125 C 2.15625 -9.253906 3.023438 -9.582031 3.953125 -9.8125 C 4.878906 -10.050781 5.742188 -10.347656 6.546875 -10.703125 C 7.347656 -11.054688 8.007812 -11.519531 8.53125 -12.09375 C 9.0625 -12.664062 9.328125 -13.472656 9.328125 -14.515625 C 9.328125 -15.515625 8.929688 -16.546875 8.140625 -17.609375 C 7.359375 -18.679688 6.492188 -19.820312 5.546875 -21.03125 C 4.597656 -22.238281 3.734375 -23.53125 2.953125 -24.90625 C 2.171875 -26.28125 1.78125 -27.796875 1.78125 -29.453125 C 1.78125 -31.492188 2.191406 -33.378906 3.015625 -35.109375 C 3.847656 -36.835938 4.960938 -38.34375 6.359375 -39.625 C 7.765625 -40.90625 9.367188 -41.914062 11.171875 -42.65625 C 12.972656 -43.394531 14.867188 -43.765625 16.859375 -43.765625 C 17.617188 -43.765625 18.363281 -43.691406 19.09375 -43.546875 C 19.832031 -43.398438 20.488281 -43.148438 21.0625 -42.796875 C 21.632812 -42.441406 22.097656 -41.96875 22.453125 -41.375 C 22.804688 -40.78125 22.984375 -40.035156 22.984375 -39.140625 Z M 22.984375 -39.140625 "/></g></g></g><g clip-path="url(#1075ed89fb)"><path fill="#328b31" d="M 96.292969 64.898438 C 84.347656 64.898438 74.664062 74.578125 74.664062 86.523438 C 74.664062 98.46875 84.347656 108.152344 96.292969 108.152344 C 108.238281 108.152344 117.917969 98.46875 117.917969 86.523438 C 117.917969 74.582031 108.238281 64.898438 96.292969 64.898438 Z M 75.609375 86.523438 C 75.609375 75.101562 84.867188 65.84375 96.292969 65.84375 C 99.394531 65.84375 102.355469 66.496094 104.972656 67.773438 C 111.109375 70.761719 113.667969 78.671875 113.667969 84.25 C 113.667969 89.933594 109.101562 98.339844 99.296875 98.339844 C 92.828125 98.339844 89.339844 94.003906 89.339844 89.921875 C 89.339844 87.546875 90.355469 85.820312 92.128906 85.175781 C 92.515625 85.035156 92.929688 84.960938 93.328125 84.960938 C 94.003906 84.960938 95.230469 85.1875 95.855469 86.703125 C 96.46875 88.183594 97.707031 89.03125 99.257812 89.03125 C 99.761719 89.03125 100.289062 88.9375 100.78125 88.761719 C 102.917969 87.984375 104.195312 85.878906 104.195312 83.125 C 104.195312 80.648438 103.152344 78.332031 101.265625 76.601562 C 99.242188 74.738281 96.480469 73.757812 93.289062 73.757812 C 87.464844 73.757812 83.84375 76.5 81.828125 78.804688 C 79.410156 81.566406 77.96875 85.304688 77.96875 88.800781 C 77.96875 93.507812 79.371094 97.894531 81.828125 101.296875 C 81.828125 101.300781 81.828125 101.304688 81.828125 101.304688 C 77.996094 97.550781 75.609375 92.316406 75.609375 86.523438 Z M 75.609375 86.523438 " fill-opacity="1" fill-rule="nonzero"/></g></svg>