<svg xmlns="http://www.w3.org/2000/svg" xmlns:xlink="http://www.w3.org/1999/xlink" width="500" zoomAndPan="magnify" viewBox="0 0 375 131.249995" height="175" preserveAspectRatio="xMidYMid meet" version="1.0"><defs><g/><clipPath id="fefe9e6c9d"><path d="M 54.613281 48.300781 L 96.371094 48.300781 L 96.371094 90.0625 L 54.613281 90.0625 Z M 54.613281 48.300781 " clip-rule="nonzero"/></clipPath></defs><g fill="#ffffff" fill-opacity="1"><g transform="translate(16.88333, 89.334945)"><g><path d="M 36.6875 -3.03125 C 36.6875 -1.75 36.363281 -0.707031 35.71875 0.09375 C 35.082031 0.90625 34.097656 1.3125 32.765625 1.3125 C 31.703125 1.3125 30.722656 0.988281 29.828125 0.34375 C 28.929688 -0.300781 28.101562 -1.09375 27.34375 -2.03125 C 26.582031 -2.976562 25.914062 -3.976562 25.34375 -5.03125 C 24.769531 -6.09375 24.300781 -7.015625 23.9375 -7.796875 C 22.96875 -9.722656 22.007812 -11.648438 21.0625 -13.578125 C 20.125 -15.515625 19.195312 -17.472656 18.28125 -19.453125 L 14.140625 -16.890625 C 14.179688 -15.554688 14.109375 -14.222656 13.921875 -12.890625 C 13.742188 -11.554688 13.609375 -10.222656 13.515625 -8.890625 C 13.421875 -7.972656 13.269531 -6.972656 13.0625 -5.890625 C 12.863281 -4.816406 12.53125 -3.804688 12.0625 -2.859375 C 11.601562 -1.921875 10.984375 -1.128906 10.203125 -0.484375 C 9.421875 0.160156 8.457031 0.484375 7.3125 0.484375 C 6.25 0.484375 5.375 0.265625 4.6875 -0.171875 C 4 -0.609375 3.4375 -1.171875 3 -1.859375 C 2.5625 -2.546875 2.25 -3.328125 2.0625 -4.203125 C 1.882812 -5.078125 1.796875 -5.972656 1.796875 -6.890625 L 1.796875 -7.453125 C 1.796875 -10.160156 1.941406 -12.878906 2.234375 -15.609375 C 2.535156 -18.347656 2.734375 -21.097656 2.828125 -23.859375 C 2.921875 -27.492188 3.035156 -31.125 3.171875 -34.75 C 3.304688 -38.382812 3.488281 -42.019531 3.71875 -45.65625 C 3.769531 -46.488281 3.910156 -47.296875 4.140625 -48.078125 C 4.367188 -48.859375 4.710938 -49.554688 5.171875 -50.171875 C 5.628906 -50.796875 6.191406 -51.289062 6.859375 -51.65625 C 7.523438 -52.019531 8.316406 -52.203125 9.234375 -52.203125 C 10.660156 -52.203125 11.726562 -51.695312 12.4375 -50.6875 C 13.15625 -49.675781 13.648438 -48.457031 13.921875 -47.03125 C 14.203125 -45.613281 14.332031 -44.144531 14.3125 -42.625 C 14.289062 -41.101562 14.28125 -39.835938 14.28125 -38.828125 C 14.28125 -35.929688 14.207031 -33.035156 14.0625 -30.140625 C 15.394531 -31.242188 16.691406 -32.507812 17.953125 -33.9375 C 19.222656 -35.363281 20.34375 -36.8125 21.3125 -38.28125 C 21.90625 -39.15625 22.59375 -40.359375 23.375 -41.890625 C 24.15625 -43.429688 25.003906 -44.925781 25.921875 -46.375 C 26.847656 -47.832031 27.863281 -49.097656 28.96875 -50.171875 C 30.070312 -51.253906 31.242188 -51.796875 32.484375 -51.796875 C 33.816406 -51.796875 34.789062 -51.414062 35.40625 -50.65625 C 36.03125 -49.894531 36.34375 -48.894531 36.34375 -47.65625 C 36.34375 -45.820312 36.054688 -43.9375 35.484375 -42 C 34.910156 -40.070312 34.140625 -38.175781 33.171875 -36.3125 C 32.203125 -34.445312 31.109375 -32.675781 29.890625 -31 C 28.679688 -29.320312 27.453125 -27.863281 26.203125 -26.625 C 27.492188 -24.457031 28.710938 -22.28125 29.859375 -20.09375 C 31.015625 -17.914062 32.164062 -15.722656 33.3125 -13.515625 C 33.726562 -12.785156 34.128906 -11.984375 34.515625 -11.109375 C 34.910156 -10.234375 35.269531 -9.332031 35.59375 -8.40625 C 35.914062 -7.488281 36.175781 -6.570312 36.375 -5.65625 C 36.582031 -4.738281 36.6875 -3.863281 36.6875 -3.03125 Z M 36.6875 -3.03125 "/></g></g></g><g fill="#ffffff" fill-opacity="1"><g transform="translate(57.73446, 89.334945)"><g/></g></g><g fill="#ffffff" fill-opacity="1"><g transform="translate(78.093546, 89.334945)"><g/></g></g><g fill="#ffffff" fill-opacity="1"><g transform="translate(98.460152, 89.334945)"><g><path d="M 26 -25.796875 C 25.351562 -25.742188 24.800781 -25.796875 24.34375 -25.953125 C 23.882812 -26.117188 23.425781 -26.296875 22.96875 -26.484375 C 22.550781 -26.671875 22.132812 -26.84375 21.71875 -27 C 21.3125 -27.164062 20.851562 -27.222656 20.34375 -27.171875 C 19.425781 -27.128906 18.609375 -26.875 17.890625 -26.40625 C 17.179688 -25.945312 16.539062 -25.375 15.96875 -24.6875 C 15.394531 -24 14.898438 -23.226562 14.484375 -22.375 C 14.066406 -21.53125 13.742188 -20.691406 13.515625 -19.859375 C 13.378906 -19.304688 13.273438 -18.46875 13.203125 -17.34375 C 13.140625 -16.21875 13.109375 -15.007812 13.109375 -13.71875 C 13.054688 -12.382812 13.03125 -11.117188 13.03125 -9.921875 C 13.03125 -8.734375 12.984375 -7.796875 12.890625 -7.109375 C 12.847656 -6.367188 12.734375 -5.503906 12.546875 -4.515625 C 12.367188 -3.523438 12.082031 -2.59375 11.6875 -1.71875 C 11.300781 -0.84375 10.785156 -0.109375 10.140625 0.484375 C 9.492188 1.078125 8.664062 1.375 7.65625 1.375 C 6.875 1.375 6.195312 1.144531 5.625 0.6875 C 5.050781 0.226562 4.566406 -0.378906 4.171875 -1.140625 C 3.785156 -1.898438 3.460938 -2.785156 3.203125 -3.796875 C 2.953125 -4.804688 2.757812 -5.835938 2.625 -6.890625 C 2.476562 -7.992188 2.367188 -9.097656 2.296875 -10.203125 C 2.234375 -11.304688 2.191406 -12.351562 2.171875 -13.34375 C 2.148438 -14.332031 2.148438 -15.238281 2.171875 -16.0625 C 2.191406 -16.894531 2.203125 -17.5625 2.203125 -18.0625 C 2.160156 -19.675781 2.082031 -21.296875 1.96875 -22.921875 C 1.851562 -24.554688 1.796875 -26.179688 1.796875 -27.796875 C 1.796875 -28.804688 1.835938 -29.929688 1.921875 -31.171875 C 2.015625 -32.410156 2.269531 -33.570312 2.6875 -34.65625 C 3.101562 -35.738281 3.710938 -36.644531 4.515625 -37.375 C 5.316406 -38.113281 6.429688 -38.484375 7.859375 -38.484375 C 8.640625 -38.484375 9.304688 -38.226562 9.859375 -37.71875 C 10.410156 -37.21875 10.859375 -36.597656 11.203125 -35.859375 C 11.546875 -35.128906 11.8125 -34.347656 12 -33.515625 C 12.1875 -32.691406 12.300781 -31.9375 12.34375 -31.25 C 13.445312 -33.039062 14.6875 -34.5 16.0625 -35.625 C 17.445312 -36.75 19.242188 -37.359375 21.453125 -37.453125 C 22.554688 -37.492188 23.644531 -37.390625 24.71875 -37.140625 C 25.800781 -36.890625 26.789062 -36.472656 27.6875 -35.890625 C 28.582031 -35.316406 29.316406 -34.570312 29.890625 -33.65625 C 30.472656 -32.738281 30.785156 -31.660156 30.828125 -30.421875 C 30.921875 -28.941406 30.484375 -27.8125 29.515625 -27.03125 C 28.554688 -26.25 27.382812 -25.835938 26 -25.796875 Z M 26 -25.796875 "/></g></g></g><g fill="#ffffff" fill-opacity="1"><g transform="translate(131.987969, 89.334945)"><g><path d="M 32.28125 -19.71875 C 32.28125 -17.195312 32.023438 -14.691406 31.515625 -12.203125 C 31.015625 -9.722656 30.164062 -7.503906 28.96875 -5.546875 C 27.769531 -3.597656 26.171875 -2.023438 24.171875 -0.828125 C 22.171875 0.367188 19.675781 0.96875 16.6875 0.96875 C 13.75 0.96875 11.289062 0.382812 9.3125 -0.78125 C 7.332031 -1.957031 5.753906 -3.507812 4.578125 -5.4375 C 3.410156 -7.375 2.582031 -9.5625 2.09375 -12 C 1.613281 -14.4375 1.375 -16.921875 1.375 -19.453125 C 1.375 -22.210938 1.695312 -24.945312 2.34375 -27.65625 C 2.476562 -28.394531 2.738281 -29.414062 3.125 -30.71875 C 3.519531 -32.03125 4.03125 -33.316406 4.65625 -34.578125 C 5.28125 -35.847656 5.992188 -36.941406 6.796875 -37.859375 C 7.597656 -38.785156 8.484375 -39.25 9.453125 -39.25 C 10.367188 -39.25 11.101562 -38.992188 11.65625 -38.484375 C 12.207031 -37.972656 12.644531 -37.335938 12.96875 -36.578125 C 13.289062 -35.828125 13.492188 -35.023438 13.578125 -34.171875 C 13.671875 -33.328125 13.71875 -32.554688 13.71875 -31.859375 C 13.71875 -30.804688 13.640625 -29.773438 13.484375 -28.765625 C 13.328125 -27.753906 13.15625 -26.738281 12.96875 -25.71875 C 12.78125 -24.34375 12.601562 -22.960938 12.4375 -21.578125 C 12.28125 -20.203125 12.203125 -18.828125 12.203125 -17.453125 C 12.203125 -16.765625 12.238281 -15.992188 12.3125 -15.140625 C 12.382812 -14.285156 12.554688 -13.46875 12.828125 -12.6875 C 13.109375 -11.90625 13.5 -11.25 14 -10.71875 C 14.507812 -10.195312 15.222656 -9.9375 16.140625 -9.9375 C 17.335938 -9.9375 18.289062 -10.253906 19 -10.890625 C 19.707031 -11.535156 20.234375 -12.34375 20.578125 -13.3125 C 20.929688 -14.28125 21.148438 -15.3125 21.234375 -16.40625 C 21.328125 -17.507812 21.375 -18.523438 21.375 -19.453125 C 21.375 -21.472656 21.234375 -23.457031 20.953125 -25.40625 C 20.679688 -27.363281 20.429688 -29.351562 20.203125 -31.375 C 20.160156 -31.601562 20.140625 -31.925781 20.140625 -32.34375 C 20.140625 -33.03125 20.253906 -33.71875 20.484375 -34.40625 C 20.710938 -35.101562 21.035156 -35.726562 21.453125 -36.28125 C 21.867188 -36.832031 22.375 -37.28125 22.96875 -37.625 C 23.5625 -37.96875 24.226562 -38.140625 24.96875 -38.140625 C 25.976562 -38.140625 26.875 -37.78125 27.65625 -37.0625 C 28.4375 -36.351562 29.09375 -35.4375 29.625 -34.3125 C 30.15625 -33.1875 30.59375 -31.921875 30.9375 -30.515625 C 31.28125 -29.117188 31.554688 -27.738281 31.765625 -26.375 C 31.972656 -25.019531 32.109375 -23.742188 32.171875 -22.546875 C 32.242188 -21.359375 32.28125 -20.414062 32.28125 -19.71875 Z M 32.28125 -19.71875 "/></g></g></g><g fill="#ffffff" fill-opacity="1"><g transform="translate(170.135184, 89.334945)"><g/></g></g><g fill="#ffffff" fill-opacity="1"><g transform="translate(190.494274, 89.334945)"><g><path d="M 30.203125 -49.796875 C 30.203125 -48.046875 29.601562 -46.457031 28.40625 -45.03125 C 27.21875 -43.613281 25.757812 -42.335938 24.03125 -41.203125 C 22.3125 -40.078125 20.507812 -39.097656 18.625 -38.265625 C 16.738281 -37.441406 15.101562 -36.753906 13.71875 -36.203125 C 13.71875 -35.242188 13.695312 -34.253906 13.65625 -33.234375 C 13.613281 -32.222656 13.546875 -31.210938 13.453125 -30.203125 C 14.921875 -30.941406 16.570312 -31.632812 18.40625 -32.28125 C 20.25 -32.925781 22 -33.25 23.65625 -33.25 C 24.988281 -33.25 26.078125 -32.972656 26.921875 -32.421875 C 27.773438 -31.867188 28.203125 -30.898438 28.203125 -29.515625 C 28.203125 -28.003906 27.660156 -26.648438 26.578125 -25.453125 C 25.503906 -24.253906 24.207031 -23.191406 22.6875 -22.265625 C 21.175781 -21.347656 19.59375 -20.566406 17.9375 -19.921875 C 16.28125 -19.285156 14.875 -18.785156 13.71875 -18.421875 C 13.71875 -16.898438 13.695312 -15.390625 13.65625 -13.890625 C 13.613281 -12.398438 13.546875 -10.921875 13.453125 -9.453125 C 13.398438 -8.710938 13.316406 -7.789062 13.203125 -6.6875 C 13.085938 -5.582031 12.859375 -4.515625 12.515625 -3.484375 C 12.171875 -2.453125 11.675781 -1.554688 11.03125 -0.796875 C 10.382812 -0.0351562 9.554688 0.34375 8.546875 0.34375 C 7.585938 0.34375 6.757812 -0.125 6.0625 -1.0625 C 5.375 -2.007812 4.789062 -3.21875 4.3125 -4.6875 C 3.832031 -6.15625 3.441406 -7.796875 3.140625 -9.609375 C 2.835938 -11.429688 2.601562 -13.21875 2.4375 -14.96875 C 2.28125 -16.71875 2.191406 -18.328125 2.171875 -19.796875 C 2.148438 -21.265625 2.140625 -22.390625 2.140625 -23.171875 C 2.140625 -23.773438 2.148438 -24.660156 2.171875 -25.828125 C 2.191406 -27.003906 2.210938 -28.300781 2.234375 -29.71875 C 2.265625 -31.144531 2.3125 -32.640625 2.375 -34.203125 C 2.445312 -35.765625 2.53125 -37.25 2.625 -38.65625 C 2.71875 -40.0625 2.84375 -41.300781 3 -42.375 C 3.15625 -43.457031 3.351562 -44.253906 3.59375 -44.765625 C 4.09375 -45.773438 5.296875 -46.773438 7.203125 -47.765625 C 9.109375 -48.753906 11.234375 -49.625 13.578125 -50.375 C 15.929688 -51.132812 18.222656 -51.753906 20.453125 -52.234375 C 22.679688 -52.722656 24.394531 -52.96875 25.59375 -52.96875 C 26.144531 -52.96875 26.679688 -52.929688 27.203125 -52.859375 C 27.734375 -52.796875 28.226562 -52.648438 28.6875 -52.421875 C 29.144531 -52.191406 29.507812 -51.867188 29.78125 -51.453125 C 30.0625 -51.035156 30.203125 -50.484375 30.203125 -49.796875 Z M 30.203125 -49.796875 "/></g></g></g><g fill="#ffffff" fill-opacity="1"><g transform="translate(222.712107, 89.334945)"><g><path d="M 14.96875 -41.796875 C 14.96875 -39.316406 14.863281 -36.820312 14.65625 -34.3125 C 14.445312 -31.800781 14.34375 -29.285156 14.34375 -26.765625 C 14.34375 -23.492188 14.445312 -20.222656 14.65625 -16.953125 C 14.863281 -13.691406 14.96875 -10.410156 14.96875 -7.109375 C 14.96875 -6.273438 14.921875 -5.34375 14.828125 -4.3125 C 14.734375 -3.28125 14.515625 -2.328125 14.171875 -1.453125 C 13.828125 -0.578125 13.3125 0.15625 12.625 0.75 C 11.9375 1.351562 11.015625 1.65625 9.859375 1.65625 C 8.753906 1.65625 7.800781 1.113281 7 0.03125 C 6.195312 -1.050781 5.53125 -2.429688 5 -4.109375 C 4.46875 -5.785156 4.03125 -7.65625 3.6875 -9.71875 C 3.34375 -11.789062 3.085938 -13.800781 2.921875 -15.75 C 2.765625 -17.707031 2.648438 -19.503906 2.578125 -21.140625 C 2.515625 -22.773438 2.484375 -23.984375 2.484375 -24.765625 C 2.484375 -25.640625 2.515625 -26.898438 2.578125 -28.546875 C 2.648438 -30.203125 2.800781 -31.992188 3.03125 -33.921875 C 3.257812 -35.859375 3.566406 -37.828125 3.953125 -39.828125 C 4.347656 -41.828125 4.867188 -43.644531 5.515625 -45.28125 C 6.160156 -46.914062 6.929688 -48.25 7.828125 -49.28125 C 8.722656 -50.3125 9.789062 -50.828125 11.03125 -50.828125 C 12.039062 -50.828125 12.8125 -50.492188 13.34375 -49.828125 C 13.875 -49.160156 14.253906 -48.351562 14.484375 -47.40625 C 14.710938 -46.46875 14.847656 -45.484375 14.890625 -44.453125 C 14.941406 -43.421875 14.96875 -42.535156 14.96875 -41.796875 Z M 14.96875 -41.796875 "/></g></g></g><g fill="#ffffff" fill-opacity="1"><g transform="translate(244.588014, 89.334945)"><g><path d="M 13.453125 -48.140625 C 13.453125 -47.492188 13.28125 -46.914062 12.9375 -46.40625 C 12.59375 -45.90625 12.144531 -45.457031 11.59375 -45.0625 C 11.039062 -44.675781 10.441406 -44.378906 9.796875 -44.171875 C 9.148438 -43.960938 8.550781 -43.859375 8 -43.859375 C 7.082031 -43.859375 6.273438 -44.085938 5.578125 -44.546875 C 4.890625 -45.015625 4.546875 -45.726562 4.546875 -46.6875 C 4.546875 -47.382812 4.71875 -47.992188 5.0625 -48.515625 C 5.414062 -49.046875 5.84375 -49.484375 6.34375 -49.828125 C 6.851562 -50.171875 7.425781 -50.4375 8.0625 -50.625 C 8.707031 -50.8125 9.332031 -50.90625 9.9375 -50.90625 C 10.800781 -50.90625 11.601562 -50.695312 12.34375 -50.28125 C 13.082031 -49.863281 13.453125 -49.148438 13.453125 -48.140625 Z M 14 -24.6875 C 14 -24.039062 14 -23.363281 14 -22.65625 C 14 -21.945312 13.976562 -21.269531 13.9375 -20.625 C 13.882812 -19.84375 13.859375 -18.796875 13.859375 -17.484375 C 13.859375 -16.171875 13.8125 -14.753906 13.71875 -13.234375 C 13.632812 -11.722656 13.488281 -10.1875 13.28125 -8.625 C 13.070312 -7.0625 12.738281 -5.632812 12.28125 -4.34375 C 11.820312 -3.050781 11.210938 -2.003906 10.453125 -1.203125 C 9.691406 -0.398438 8.738281 0.0195312 7.59375 0.0625 C 6.71875 0.113281 5.976562 -0.222656 5.375 -0.953125 C 4.78125 -1.691406 4.285156 -2.648438 3.890625 -3.828125 C 3.503906 -5.003906 3.21875 -6.316406 3.03125 -7.765625 C 2.851562 -9.210938 2.71875 -10.613281 2.625 -11.96875 C 2.53125 -13.320312 2.484375 -14.570312 2.484375 -15.71875 C 2.484375 -16.875 2.484375 -17.726562 2.484375 -18.28125 C 2.484375 -19.007812 2.484375 -20.050781 2.484375 -21.40625 C 2.484375 -22.769531 2.53125 -24.234375 2.625 -25.796875 C 2.71875 -27.359375 2.890625 -28.941406 3.140625 -30.546875 C 3.390625 -32.160156 3.753906 -33.632812 4.234375 -34.96875 C 4.722656 -36.300781 5.359375 -37.378906 6.140625 -38.203125 C 6.921875 -39.035156 7.910156 -39.453125 9.109375 -39.453125 C 10.347656 -39.453125 11.285156 -38.828125 11.921875 -37.578125 C 12.566406 -36.335938 13.050781 -34.890625 13.375 -33.234375 C 13.695312 -31.585938 13.878906 -29.945312 13.921875 -28.3125 C 13.972656 -26.675781 14 -25.46875 14 -24.6875 Z M 14 -24.6875 "/></g></g></g><g fill="#ffffff" fill-opacity="1"><g transform="translate(265.153942, 89.334945)"><g><path d="M 27.65625 -26.484375 C 27.65625 -26.253906 27.628906 -26.007812 27.578125 -25.75 C 27.535156 -25.5 27.46875 -25.257812 27.375 -25.03125 C 26.96875 -23.976562 26.328125 -23.09375 25.453125 -22.375 C 24.578125 -21.664062 23.539062 -21.3125 22.34375 -21.3125 C 20.550781 -21.3125 19.332031 -22.207031 18.6875 -24 C 18.59375 -24.226562 18.546875 -24.492188 18.546875 -24.796875 C 18.546875 -25.097656 18.523438 -25.40625 18.484375 -25.71875 L 18.484375 -27.71875 C 18.390625 -28.363281 18.226562 -28.867188 18 -29.234375 C 17.769531 -29.609375 17.378906 -29.796875 16.828125 -29.796875 C 16.046875 -29.796875 15.296875 -29.300781 14.578125 -28.3125 C 13.867188 -27.320312 13.25 -26.148438 12.71875 -24.796875 C 12.195312 -23.441406 11.773438 -22.050781 11.453125 -20.625 C 11.128906 -19.195312 10.96875 -18.046875 10.96875 -17.171875 C 10.96875 -16.484375 11.007812 -15.644531 11.09375 -14.65625 C 11.1875 -13.664062 11.367188 -12.710938 11.640625 -11.796875 C 11.921875 -10.878906 12.300781 -10.085938 12.78125 -9.421875 C 13.269531 -8.753906 13.90625 -8.421875 14.6875 -8.421875 C 15.46875 -8.421875 16.191406 -8.660156 16.859375 -9.140625 C 17.523438 -9.617188 18.179688 -10.179688 18.828125 -10.828125 C 19.421875 -11.378906 20.070312 -11.953125 20.78125 -12.546875 C 21.5 -13.148438 22.320312 -13.453125 23.25 -13.453125 C 24.394531 -13.453125 25.300781 -13.035156 25.96875 -12.203125 C 26.632812 -11.378906 26.96875 -10.4375 26.96875 -9.375 C 26.96875 -7.8125 26.550781 -6.351562 25.71875 -5 C 24.894531 -3.644531 23.863281 -2.472656 22.625 -1.484375 C 21.382812 -0.492188 20.003906 0.285156 18.484375 0.859375 C 16.960938 1.429688 15.515625 1.71875 14.140625 1.71875 C 11.660156 1.71875 9.554688 1.097656 7.828125 -0.140625 C 6.097656 -1.378906 4.703125 -2.953125 3.640625 -4.859375 C 2.585938 -6.765625 1.832031 -8.84375 1.375 -11.09375 C 0.914062 -13.351562 0.6875 -15.492188 0.6875 -17.515625 C 0.6875 -19.859375 1.007812 -22.398438 1.65625 -25.140625 C 2.300781 -27.878906 3.289062 -30.421875 4.625 -32.765625 C 5.957031 -35.109375 7.664062 -37.0625 9.75 -38.625 C 11.84375 -40.1875 14.34375 -40.96875 17.25 -40.96875 C 19.039062 -40.96875 20.585938 -40.578125 21.890625 -39.796875 C 23.203125 -39.015625 24.285156 -37.988281 25.140625 -36.71875 C 25.992188 -35.457031 26.632812 -34.046875 27.0625 -32.484375 C 27.5 -30.921875 27.71875 -29.378906 27.71875 -27.859375 C 27.71875 -27.628906 27.71875 -27.398438 27.71875 -27.171875 C 27.71875 -26.941406 27.695312 -26.710938 27.65625 -26.484375 Z M 27.65625 -26.484375 "/></g></g></g><g fill="#ffffff" fill-opacity="1"><g transform="translate(298.337032, 89.334945)"><g><path d="M 32.6875 -37.109375 C 32.6875 -35.816406 32.351562 -34.503906 31.6875 -33.171875 C 31.019531 -31.835938 30.210938 -30.515625 29.265625 -29.203125 C 28.328125 -27.898438 27.34375 -26.660156 26.3125 -25.484375 C 25.28125 -24.304688 24.375 -23.238281 23.59375 -22.28125 C 24.226562 -21.269531 25.03125 -19.921875 26 -18.234375 C 26.96875 -16.554688 27.890625 -14.773438 28.765625 -12.890625 C 29.640625 -11.003906 30.382812 -9.164062 31 -7.375 C 31.625 -5.582031 31.9375 -4.085938 31.9375 -2.890625 C 31.9375 -1.929688 31.632812 -1.046875 31.03125 -0.234375 C 30.4375 0.566406 29.609375 0.96875 28.546875 0.96875 C 27.765625 0.96875 26.972656 0.632812 26.171875 -0.03125 C 25.367188 -0.695312 24.5625 -1.570312 23.75 -2.65625 C 22.945312 -3.738281 22.175781 -4.945312 21.4375 -6.28125 C 20.707031 -7.613281 20.03125 -8.921875 19.40625 -10.203125 C 18.789062 -11.492188 18.238281 -12.703125 17.75 -13.828125 C 17.269531 -14.953125 16.894531 -15.859375 16.625 -16.546875 C 16.019531 -15.953125 15.382812 -15.457031 14.71875 -15.0625 C 14.050781 -14.675781 13.398438 -14.226562 12.765625 -13.71875 C 12.765625 -12.757812 12.726562 -11.40625 12.65625 -9.65625 C 12.582031 -7.90625 12.375 -6.179688 12.03125 -4.484375 C 11.6875 -2.785156 11.125 -1.300781 10.34375 -0.03125 C 9.5625 1.226562 8.410156 1.859375 6.890625 1.859375 C 5.703125 1.859375 4.785156 1.316406 4.140625 0.234375 C 3.492188 -0.835938 3.019531 -2.097656 2.71875 -3.546875 C 2.425781 -4.992188 2.253906 -6.460938 2.203125 -7.953125 C 2.160156 -9.453125 2.140625 -10.59375 2.140625 -11.375 C 2.140625 -14.78125 2.226562 -18.179688 2.40625 -21.578125 C 2.59375 -24.984375 2.710938 -28.390625 2.765625 -31.796875 C 2.765625 -32.578125 2.773438 -33.597656 2.796875 -34.859375 C 2.816406 -36.128906 2.894531 -37.5 3.03125 -38.96875 C 3.164062 -40.4375 3.367188 -41.929688 3.640625 -43.453125 C 3.921875 -44.972656 4.316406 -46.335938 4.828125 -47.546875 C 5.335938 -48.765625 5.992188 -49.753906 6.796875 -50.515625 C 7.597656 -51.273438 8.570312 -51.65625 9.71875 -51.65625 C 10.550781 -51.65625 11.253906 -51.34375 11.828125 -50.71875 C 12.398438 -50.101562 12.859375 -49.3125 13.203125 -48.34375 C 13.546875 -47.382812 13.796875 -46.304688 13.953125 -45.109375 C 14.117188 -43.910156 14.238281 -42.722656 14.3125 -41.546875 C 14.382812 -40.378906 14.421875 -39.289062 14.421875 -38.28125 C 14.421875 -37.269531 14.421875 -36.460938 14.421875 -35.859375 C 14.421875 -35.453125 14.40625 -34.84375 14.375 -34.03125 C 14.351562 -33.226562 14.332031 -32.390625 14.3125 -31.515625 C 14.289062 -30.640625 14.28125 -29.832031 14.28125 -29.09375 C 14.28125 -28.363281 14.328125 -27.835938 14.421875 -27.515625 C 14.734375 -27.515625 15.210938 -27.820312 15.859375 -28.4375 C 16.503906 -29.0625 17.25 -29.859375 18.09375 -30.828125 C 18.945312 -31.796875 19.867188 -32.816406 20.859375 -33.890625 C 21.847656 -34.972656 22.859375 -36 23.890625 -36.96875 C 24.929688 -37.9375 25.957031 -38.726562 26.96875 -39.34375 C 27.976562 -39.96875 28.921875 -40.28125 29.796875 -40.28125 C 30.710938 -40.28125 31.421875 -39.957031 31.921875 -39.3125 C 32.429688 -38.664062 32.6875 -37.929688 32.6875 -37.109375 Z M 32.6875 -37.109375 "/></g></g></g><g fill="#ffffff" fill-opacity="1"><g transform="translate(335.105328, 89.334945)"><g><path d="M 22.28125 -37.9375 C 22.28125 -36.601562 21.832031 -35.613281 20.9375 -34.96875 C 20.039062 -34.320312 19.039062 -33.710938 17.9375 -33.140625 C 16.832031 -32.566406 15.832031 -31.890625 14.9375 -31.109375 C 14.039062 -30.328125 13.59375 -29.15625 13.59375 -27.59375 C 13.59375 -26.757812 13.785156 -26.039062 14.171875 -25.4375 C 14.566406 -24.84375 15.050781 -24.304688 15.625 -23.828125 C 16.195312 -23.347656 16.828125 -22.851562 17.515625 -22.34375 C 18.203125 -21.84375 18.832031 -21.269531 19.40625 -20.625 C 19.988281 -19.976562 20.472656 -19.191406 20.859375 -18.265625 C 21.253906 -17.347656 21.453125 -16.222656 21.453125 -14.890625 C 21.453125 -12.960938 20.957031 -11.066406 19.96875 -9.203125 C 18.976562 -7.347656 17.710938 -5.691406 16.171875 -4.234375 C 14.628906 -2.785156 12.890625 -1.625 10.953125 -0.75 C 9.023438 0.113281 7.117188 0.546875 5.234375 0.546875 C 4.453125 0.546875 3.671875 0.488281 2.890625 0.375 C 2.109375 0.257812 1.40625 0.0390625 0.78125 -0.28125 C 0.164062 -0.601562 -0.34375 -1.050781 -0.75 -1.625 C -1.164062 -2.195312 -1.375 -2.941406 -1.375 -3.859375 C -1.375 -5.148438 -1.117188 -6.148438 -0.609375 -6.859375 C -0.109375 -7.578125 0.53125 -8.140625 1.3125 -8.546875 C 2.09375 -8.960938 2.929688 -9.285156 3.828125 -9.515625 C 4.722656 -9.742188 5.5625 -10.03125 6.34375 -10.375 C 7.125 -10.71875 7.765625 -11.164062 8.265625 -11.71875 C 8.773438 -12.269531 9.03125 -13.050781 9.03125 -14.0625 C 9.03125 -15.03125 8.648438 -16.03125 7.890625 -17.0625 C 7.140625 -18.101562 6.300781 -19.207031 5.375 -20.375 C 4.457031 -21.550781 3.617188 -22.804688 2.859375 -24.140625 C 2.097656 -25.472656 1.71875 -26.941406 1.71875 -28.546875 C 1.71875 -30.523438 2.117188 -32.351562 2.921875 -34.03125 C 3.734375 -35.707031 4.816406 -37.164062 6.171875 -38.40625 C 7.523438 -39.65625 9.078125 -40.632812 10.828125 -41.34375 C 12.578125 -42.0625 14.414062 -42.421875 16.34375 -42.421875 C 17.082031 -42.421875 17.804688 -42.347656 18.515625 -42.203125 C 19.234375 -42.066406 19.867188 -41.828125 20.421875 -41.484375 C 20.972656 -41.140625 21.421875 -40.679688 21.765625 -40.109375 C 22.109375 -39.535156 22.28125 -38.8125 22.28125 -37.9375 Z M 22.28125 -37.9375 "/></g></g></g><g clip-path="url(#fefe9e6c9d)"><path fill="#3db63b" d="M 75.574219 48.300781 C 63.996094 48.300781 54.613281 57.683594 54.613281 69.261719 C 54.613281 80.839844 63.996094 90.226562 75.574219 90.226562 C 87.152344 90.226562 96.535156 80.839844 96.535156 69.261719 C 96.535156 57.6875 87.152344 48.300781 75.574219 48.300781 Z M 55.527344 69.261719 C 55.527344 58.191406 64.5 49.21875 75.574219 49.21875 C 78.582031 49.21875 81.453125 49.851562 83.988281 51.085938 C 89.9375 53.984375 92.417969 61.652344 92.417969 67.058594 C 92.417969 72.566406 87.988281 80.71875 78.484375 80.71875 C 72.21875 80.71875 68.832031 76.511719 68.832031 72.554688 C 68.832031 70.253906 69.820312 68.578125 71.539062 67.957031 C 71.914062 67.816406 72.316406 67.746094 72.703125 67.746094 C 73.355469 67.746094 74.542969 67.964844 75.152344 69.4375 C 75.742188 70.871094 76.945312 71.691406 78.445312 71.691406 C 78.9375 71.691406 79.449219 71.601562 79.925781 71.429688 C 81.996094 70.679688 83.230469 68.636719 83.230469 65.96875 C 83.230469 63.570312 82.226562 61.324219 80.394531 59.644531 C 78.433594 57.839844 75.757812 56.890625 72.664062 56.890625 C 67.019531 56.890625 63.507812 59.546875 61.554688 61.78125 C 59.210938 64.460938 57.8125 68.082031 57.8125 71.46875 C 57.8125 76.03125 59.171875 80.28125 61.554688 83.582031 C 61.554688 83.585938 61.554688 83.589844 61.554688 83.589844 C 57.839844 79.953125 55.527344 74.878906 55.527344 69.261719 Z M 55.527344 69.261719 " fill-opacity="1" fill-rule="nonzero"/></g></svg>